<?xml version="1.0" encoding="UTF-8" standalone="no"?>
<!-- Created with Inkscape (http://www.inkscape.org/) -->

<svg
   xmlns:dc="http://purl.org/dc/elements/1.1/"
   xmlns:cc="http://creativecommons.org/ns#"
   xmlns:rdf="http://www.w3.org/1999/02/22-rdf-syntax-ns#"
   xmlns:svg="http://www.w3.org/2000/svg"
   xmlns="http://www.w3.org/2000/svg"
   xmlns:sodipodi="http://sodipodi.sourceforge.net/DTD/sodipodi-0.dtd"
   xmlns:inkscape="http://www.inkscape.org/namespaces/inkscape"
   width="127mm"
   height="76.199997mm"
   viewBox="0 0 127 76.199997"
   version="1.1"
   id="svg1429"
   inkscape:version="0.92.2 5c3e80d, 2017-08-06"
   sodipodi:docname="figure_s3.svg"
   inkscape:export-filename="/Users/alexandrepayeur/Documents/Recherches/Burstprop/spikingburstprop/results/xor/FigureS3.png"
   inkscape:export-xdpi="300"
   inkscape:export-ydpi="300">
  <defs
     id="defs1423">
    <clipPath
       id="clipPath2051"
       clipPathUnits="userSpaceOnUse">
      <path
         inkscape:connector-curvature="0"
         id="path2049"
         d="M 36.406957,32.84 H 173.32043 V 199.8 H 36.406957 Z" />
    </clipPath>
    <clipPath
       id="clipPath2061"
       clipPathUnits="userSpaceOnUse">
      <path
         inkscape:connector-curvature="0"
         id="path2059"
         d="M 36.406957,32.84 H 173.32043 V 199.8 H 36.406957 Z" />
    </clipPath>
    <clipPath
       id="clipPath2071"
       clipPathUnits="userSpaceOnUse">
      <path
         inkscape:connector-curvature="0"
         id="path2069"
         d="M 36.406957,32.84 H 173.32043 V 199.8 H 36.406957 Z" />
    </clipPath>
    <clipPath
       id="clipPath2081"
       clipPathUnits="userSpaceOnUse">
      <path
         inkscape:connector-curvature="0"
         id="path2079"
         d="M 36.406957,32.84 H 173.32043 V 199.8 H 36.406957 Z" />
    </clipPath>
    <clipPath
       id="clipPath2149"
       clipPathUnits="userSpaceOnUse">
      <path
         inkscape:connector-curvature="0"
         id="path2147"
         d="m 213.36652,124.42 h 48.4337 v 75.38 h -48.4337 z" />
    </clipPath>
    <clipPath
       id="clipPath2159"
       clipPathUnits="userSpaceOnUse">
      <path
         inkscape:connector-curvature="0"
         id="path2157"
         d="m 213.36652,124.42 h 48.4337 v 75.38 h -48.4337 z" />
    </clipPath>
    <clipPath
       id="clipPath2197"
       clipPathUnits="userSpaceOnUse">
      <path
         inkscape:connector-curvature="0"
         id="path2195"
         d="M 301.8463,124.42 H 350.28 v 75.38 h -48.4337 z" />
    </clipPath>
    <clipPath
       id="clipPath2207"
       clipPathUnits="userSpaceOnUse">
      <path
         inkscape:connector-curvature="0"
         id="path2205"
         d="M 301.8463,124.42 H 350.28 v 75.38 h -48.4337 z" />
    </clipPath>
    <clipPath
       id="clipPath2249"
       clipPathUnits="userSpaceOnUse">
      <path
         inkscape:connector-curvature="0"
         id="path2247"
         d="m 213.36652,32.84 h 48.4337 v 75.38 h -48.4337 z" />
    </clipPath>
    <clipPath
       id="clipPath2259"
       clipPathUnits="userSpaceOnUse">
      <path
         inkscape:connector-curvature="0"
         id="path2257"
         d="m 213.36652,32.84 h 48.4337 v 75.38 h -48.4337 z" />
    </clipPath>
    <clipPath
       id="clipPath2297"
       clipPathUnits="userSpaceOnUse">
      <path
         inkscape:connector-curvature="0"
         id="path2295"
         d="M 301.8463,32.84 H 350.28 v 75.38 h -48.4337 z" />
    </clipPath>
    <clipPath
       id="clipPath2307"
       clipPathUnits="userSpaceOnUse">
      <path
         inkscape:connector-curvature="0"
         id="path2305"
         d="M 301.8463,32.84 H 350.28 v 75.38 h -48.4337 z" />
    </clipPath>
  </defs>
  <sodipodi:namedview
     id="base"
     pagecolor="#ffffff"
     bordercolor="#666666"
     borderopacity="1.0"
     inkscape:pageopacity="0.0"
     inkscape:pageshadow="2"
     inkscape:zoom="0.98994949"
     inkscape:cx="71.820235"
     inkscape:cy="112.55699"
     inkscape:document-units="mm"
     inkscape:current-layer="layer1"
     showgrid="false"
     inkscape:window-width="1440"
     inkscape:window-height="855"
     inkscape:window-x="0"
     inkscape:window-y="1"
     inkscape:window-maximized="1" />
  <metadata
     id="metadata1426">
    <rdf:RDF>
      <cc:Work
         rdf:about="">
        <dc:format>image/svg+xml</dc:format>
        <dc:type
           rdf:resource="http://purl.org/dc/dcmitype/StillImage" />
        <dc:title></dc:title>
      </cc:Work>
    </rdf:RDF>
  </metadata>
  <g
     inkscape:label="Layer 1"
     inkscape:groupmode="layer"
     id="layer1"
     transform="translate(-33.639883,-27.578572)">
    <g
       transform="matrix(0.35277777,0,0,-0.35277777,33.639883,103.77857)"
       inkscape:label="FigureS3"
       id="g2001">
      <path
         inkscape:connector-curvature="0"
         id="path2003"
         style="fill:#ffffff;fill-opacity:1;fill-rule:nonzero;stroke:none"
         d="M 0,0 H 360 V 216 H 0 Z" />
      <path
         inkscape:connector-curvature="0"
         id="path2005"
         style="fill:#ffffff;fill-opacity:1;fill-rule:nonzero;stroke:none"
         d="M 36.406957,32.84 H 173.32044 V 199.8 H 36.406957 Z" />
      <path
         inkscape:connector-curvature="0"
         id="path2007"
         style="fill:#000000;fill-opacity:1;fill-rule:nonzero;stroke:#000000;stroke-width:0.80000001;stroke-linecap:butt;stroke-linejoin:round;stroke-miterlimit:10;stroke-dasharray:none;stroke-opacity:1"
         d="m 42.380864,32.84 v -3.5" />
      <text
         id="text2011"
         style="font-variant:normal;font-weight:normal;font-size:7.49700022px;font-family:'Helvetica Neue';-inkscape-font-specification:HelveticaNeue;writing-mode:lr-tb;fill:#000000;fill-opacity:1;fill-rule:nonzero;stroke:none"
         transform="matrix(1,0,0,-1,40.302739,22.49625)">
        <tspan
           id="tspan2009"
           y="0"
           x="0">1</tspan>
      </text>
      <path
         inkscape:connector-curvature="0"
         id="path2013"
         style="fill:#000000;fill-opacity:1;fill-rule:nonzero;stroke:#000000;stroke-width:0.80000001;stroke-linecap:butt;stroke-linejoin:round;stroke-miterlimit:10;stroke-dasharray:none;stroke-opacity:1"
         d="m 166.84766,32.84 v -3.5" />
      <text
         id="text2017"
         style="font-variant:normal;font-weight:normal;font-size:7.49700022px;font-family:'Helvetica Neue';-inkscape-font-specification:HelveticaNeue;writing-mode:lr-tb;fill:#000000;fill-opacity:1;fill-rule:nonzero;stroke:none"
         transform="matrix(1,0,0,-1,160.61329,22.49625)">
        <tspan
           id="tspan2015"
           sodipodi:role="line"
           y="0"
           x="0 4.1683321 8.3366642">500</tspan>
      </text>
      <text
         id="text2021"
         style="font-variant:normal;font-weight:normal;font-size:9px;font-family:'Helvetica Neue';-inkscape-font-specification:HelveticaNeue;writing-mode:lr-tb;fill:#000000;fill-opacity:1;fill-rule:nonzero;stroke:none"
         transform="matrix(1,0,0,-1,91.941821,11.605625)">
        <tspan
           id="tspan2019"
           sodipodi:role="line"
           y="0"
           x="0 5.4990001 10.836 16.002001 20.834999">Epoch</tspan>
      </text>
      <path
         inkscape:connector-curvature="0"
         id="path2023"
         style="fill:#000000;fill-opacity:1;fill-rule:nonzero;stroke:#000000;stroke-width:0.80000001;stroke-linecap:butt;stroke-linejoin:round;stroke-miterlimit:10;stroke-dasharray:none;stroke-opacity:1"
         d="m 36.406957,42.443366 h -3.5" />
      <text
         id="text2027"
         style="font-variant:normal;font-weight:normal;font-size:7.49700022px;font-family:'Helvetica Neue';-inkscape-font-specification:HelveticaNeue;writing-mode:lr-tb;fill:#000000;fill-opacity:1;fill-rule:nonzero;stroke:none"
         transform="matrix(1,0,0,-1,21.016332,39.771491)">
        <tspan
           id="tspan2025"
           sodipodi:role="line"
           y="0"
           x="0 4.1683321 6.2524981">2.0</tspan>
      </text>
      <path
         inkscape:connector-curvature="0"
         id="path2029"
         style="fill:#000000;fill-opacity:1;fill-rule:nonzero;stroke:#000000;stroke-width:0.80000001;stroke-linecap:butt;stroke-linejoin:round;stroke-miterlimit:10;stroke-dasharray:none;stroke-opacity:1"
         d="m 36.406957,111.94107 h -3.5" />
      <text
         id="text2033"
         style="font-variant:normal;font-weight:normal;font-size:7.49700022px;font-family:'Helvetica Neue';-inkscape-font-specification:HelveticaNeue;writing-mode:lr-tb;fill:#000000;fill-opacity:1;fill-rule:nonzero;stroke:none"
         transform="matrix(1,0,0,-1,21.016332,109.26919)">
        <tspan
           id="tspan2031"
           sodipodi:role="line"
           y="0"
           x="0 4.1683321 6.2524981">2.6</tspan>
      </text>
      <path
         inkscape:connector-curvature="0"
         id="path2035"
         style="fill:#000000;fill-opacity:1;fill-rule:nonzero;stroke:#000000;stroke-width:0.80000001;stroke-linecap:butt;stroke-linejoin:round;stroke-miterlimit:10;stroke-dasharray:none;stroke-opacity:1"
         d="m 36.406957,181.43877 h -3.5" />
      <text
         id="text2039"
         style="font-variant:normal;font-weight:normal;font-size:7.49700022px;font-family:'Helvetica Neue';-inkscape-font-specification:HelveticaNeue;writing-mode:lr-tb;fill:#000000;fill-opacity:1;fill-rule:nonzero;stroke:none"
         transform="matrix(1,0,0,-1,21.016332,178.76689)">
        <tspan
           id="tspan2037"
           sodipodi:role="line"
           y="0"
           x="0 4.1683321 6.2524981">3.2</tspan>
      </text>
      <text
         id="text2043"
         style="font-variant:normal;font-weight:normal;font-size:9px;font-family:'Helvetica Neue';-inkscape-font-specification:HelveticaNeue;writing-mode:lr-tb;fill:#000000;fill-opacity:1;fill-rule:nonzero;stroke:none"
         transform="matrix(0,1,1,0,16.250707,106.81219)">
        <tspan
           id="tspan2041"
           sodipodi:role="line"
           y="0"
           x="0 6.4980001 11.664 16.164">Cost</tspan>
      </text>
      <g
         id="g2045">
        <g
           clip-path="url(#clipPath2051)"
           id="g2047">
          <path
             inkscape:connector-curvature="0"
             id="path2053"
             style="fill:none;stroke:#0072b2;stroke-width:1;stroke-linecap:square;stroke-linejoin:round;stroke-miterlimit:10;stroke-dasharray:none;stroke-opacity:1"
             d="m 42.630296,150.11731 0.249433,9.1737 0.748297,15.83621 0.249433,0.41698 0.249432,-0.28262 0.249433,-2.56563 0.249432,2.28995 0.249433,-1.683 0.249432,1.88686 0.249433,-7.92737 0.249432,4.11195 0.249432,-2.36987 0.249433,-0.42394 0.249432,-1.86949 0.249433,-3.37063 0.249432,2.17643 0.249433,0.55483 0.249432,-4.80114 0.249433,-1.86254 0.249432,0.34749 0.249433,2.38609 0.249432,-1.87296 0.249433,-0.3834 0.249432,-1.77798 0.249432,-0.79343 0.249433,-3.80964 0.249432,4.31002 0.249433,-1.90424 0.249432,0.17143 0.249433,-0.0579 0.249432,-0.28958 0.249433,-2.41041 0.249432,2.19265 0.249433,-0.5166 0.249432,-1.93551 0.498865,1.63088 0.249432,-2.23319 0.249433,-4.77333 0.249432,5.50653 0.748298,-1.54285 0.249432,-1.64941 0.249433,-0.33591 0.249432,-3.1772 0.249433,3.42508 0.249432,0.28031 0.498865,-2.31196 0.249432,-0.78301 0.249433,1.12471 0.249432,-0.90463 0.249433,2.09999 0.249432,0.86524 0.249433,-0.16679 0.249432,-4.00423 0.249433,0.0892 0.249432,-0.99034 0.249433,3.96253 0.249432,-0.36487 0.249433,-5.15093 0.249432,3.52121 0.249432,-2.92122 0.249433,-0.57451 0.249432,3.36137 0.249433,-4.12121 0.249432,1.33435 0.249433,-2.83319 0.249432,2.82393 0.249433,-1.03089 0.249432,-4.36445 0.498865,3.9243 0.249433,0.27104 0.249432,-3.21542 0.249432,3.41697 0.249433,-0.63359 0.249432,-1.73628 0.249433,-3.63821 0.249432,4.32971 0.249433,-1.12471 0.249432,0.0232 0.249433,-2.3803 0.498865,4.15828 0.249432,-5.66174 0.249433,-0.43205 0.249432,2.32122 0.249432,-0.0683 0.249433,-0.42509 0.249432,1.22895 0.249433,-2.73473 0.249432,2.92469 0.249433,-4.54052 0.249432,8.071 0.498865,-6.9127 0.498865,0.53397 0.249433,-0.67992 0.249432,-1.34246 0.249432,0.088 0.498865,-1.58223 0.249433,0.7888 0.249432,1.56601 0.249433,-1.26254 0.498865,1.84517 0.249432,-2.99304 0.249433,1.96563 0.249432,-4.54863 0.249433,1.81158 0.498864,0.74594 0.498865,-1.67489 0.249433,-1.79305 0.498865,1.7166 0.249432,-5.41851 0.249433,0.28726 0.498865,4.77449 0.498865,-4.01696 0.249432,3.84438 0.249432,-3.0162 0.249433,-1.09343 0.249432,2.62933 0.249433,0.96254 0.249432,0.0822 0.249433,-1.84053 0.249432,-2.88879 0.249433,3.11234 0.249432,-2.70809 0.249433,2.27373 0.249432,-0.88494 0.249433,0.67876 0.249432,-3.71928 0.249432,4.95055 0.249433,-4.9355 0.498865,-0.89652 0.498865,2.90501 0.249432,-2.60848 0.249433,2.75326 0.249432,-1.78145 0.249433,-5.39882 0.498865,4.27759 0.249432,-0.29073 0.249432,0.88609 0.249433,-5.32352 0.498865,1.34825 0.249432,1.60656 0.249433,2.38493 0.249432,-1.04478 0.249433,-3.95906 0.249432,-1.86949 0.249433,4.02508 0.249432,-2.21003 0.249433,1.14092 0.249432,-4.04708 0.249432,1.76061 0.249433,-1.00888 0.249432,1.71891 0.249433,-2.27952 0.249432,-1.01351 0.249433,1.75714 0.249432,-1.06795 0.249433,1.66099 0.249432,-2.883 0.249433,-0.31737 0.249432,1.24865 0.249433,-2.86794 0.249432,-0.0753 0.249432,1.41428 0.249433,3.4772 0.249432,-5.56677 0.249433,2.61891 0.249432,0.76679 0.498865,-2.47991 0.249433,-2.12547 0.249432,2.32701 0.498865,-2.59342 0.249433,1.56833 0.249432,0.39961 0.249432,-6.43317 0.249433,0.20502 0.249432,2.84361 0.249433,-0.72161 0.249432,-1.21737 0.249433,0.25482 0.249432,-1.91003 0.249433,2.90964 0.249432,-0.12394 0.498865,-3.95673 0.249433,-0.14131 0.249432,2.57836 0.249432,-1.15598 0.249433,0.0602 0.249432,1.2915 0.249433,-0.41235 0.249432,-3.7911 0.249433,5.83433 0.249432,-5.26329 0.249433,3.71233 0.249432,-3.0243 0.249433,0.25598 0.249432,0.47258 0.249433,-1.14671 0.249432,-0.1332 0.249432,-1.81157 0.249433,0.1749 0.249432,1.34594 0.249433,-0.53861 0.249432,-1.25212 0.249433,0.14595 0.249432,0.29305 0.249433,-0.58031 0.249432,-2.939752 0.249433,1.666782 0.249437,-2.116201 0.24943,4.326231 0.24943,-2.993033 0.24943,0.950963 0.49887,-1.409648 0.24943,-0.394979 0.24943,0.158687 0.49887,-4.347081 0.24943,6.441281 0.24943,-5.794953 0.24944,3.196894 0.24943,-1.877596 0.24943,-0.432044 0.24943,1.557907 0.24943,-0.572198 0.24944,1.080689 0.24943,-2.788016 0.24943,0.317373 0.24943,-1.146712 0.24944,1.081848 0.24943,-3.152879 0.24943,1.113121 0.24943,-0.316214 0.24944,-0.62548 0.24943,0.16332 0.24943,-0.08803 0.24943,1.967944 0.24944,-2.247093 0.24943,1.633196 0.24943,-1.819681 0.49887,-2.054815 0.24943,-1.707327 0.24943,2.562148 0.24943,-1.776824 0.24944,1.512733 0.24943,-2.649021 0.24943,-0.08571 0.24943,-0.211968 0.24944,1.686477 0.24943,-1.364471 0.24943,-0.347489 0.24943,-1.157137 0.24944,0.199227 0.24943,1.189569 0.49886,-2.891104 0.24944,2.387246 0.24943,-0.07992 0.24943,-5.111555 0.24943,1.334355 0.24944,0.538608 0.24943,2.05829 0.24943,-3.954419 0.24943,2.14632 0.24944,-3.137821 0.24943,1.208102 0.24943,0.539765 0.24943,-1.886862 0.24944,-1.001925 0.24943,4.548624 0.24943,-1.618138 0.24943,-3.594189 0.24944,1.79999 0.49886,-1.985318 0.24943,0.715827 0.24944,0.08108 0.24943,0.904629 0.24943,-3.693803 0.49887,-0.479534 0.24943,-0.575673 0.24943,0.282624 0.24943,2.916587 0.49887,-3.599981 0.24943,3.672954 0.24943,-2.889946 0.49887,2.252883 0.24943,-2.723151 0.24943,0.426252 0.24943,-1.244009 0.24944,1.513892 0.24943,-0.09035 0.24943,0.371813 0.49887,-4.168704 0.24943,0.887254 0.24943,0.218918 0.24943,-3.198053 0.24944,5.759043 0.24943,-3.247859 0.24943,-1.589181 0.24943,1.029724 0.24944,2.582998 0.24943,-2.784541 0.24943,-0.628954 0.24943,0.786482 0.24944,-0.909261 0.24943,1.173352 0.24943,-2.000375 0.24943,-0.772583 0.24944,0.06255 0.24943,0.781849 0.24943,-0.558298 0.24943,-1.272966 0.24944,0.94401 0.24943,-2.05134 0.24943,0.875671 0.24943,-2.080298 0.24944,2.337439 0.24943,-0.63822 0.24943,-4.344765 0.24943,0.644012 0.24944,2.593423 0.24943,-0.166795 0.24943,-0.853663 0.24943,1.383004 0.24943,-0.277991 0.24944,0.205019 0.24943,-0.793433 0.24943,1.003084 0.24943,-1.783774 0.24944,1.307715 0.24943,-3.362531 0.24943,2.066399 0.24943,-0.112355 0.24944,-1.021616 0.24943,1.276441 0.24943,-1.532424 0.24943,0.250191 0.24944,-1.333197 0.24943,-0.35328 0.24943,0.137837 0.24943,0.642854 0.24944,-3.093806 0.24943,2.245934 0.24943,-3.652104 0.24943,1.971418 0.24944,-1.160612 0.24943,2.960602 0.24943,0.527024 0.24943,-0.871038 0.24944,0.470268 0.24943,-3.320832 0.24943,0.843239 0.24943,1.777983 0.24944,-2.92817 0.24943,-0.348647 0.49886,-2.017749 0.24944,0.315056 0.24943,-0.337064 0.24943,1.115438 0.24943,0.559457 0.24944,0.08224 0.24943,-0.444785 0.49886,0.195752 0.24944,-0.07529 0.24943,-1.327406 0.24943,-0.688027 0.24943,1.547482 0.24944,-1.189569 0.24943,-0.208493 0.24943,1.225476 0.24943,-3.17257 0.24944,1.715435 0.24943,-0.427411 0.24943,-1.169878 0.24943,1.341305 0.24944,-1.630879 h 0.24943 l 0.24943,1.781458 0.24943,-0.01042 0.24944,-0.587255 0.49886,-0.626638 0.24943,0.429727 0.24944,-2.81234 0.24943,-0.523549 0.24943,0.555981 0.24943,1.533583 0.24943,0.0139 0.24944,-3.184153 0.24943,-0.513125 0.7483,3.750559 0.49886,-5.629314 0.24944,4.634339 0.24943,0.524707 0.24943,-2.595739 0.24943,-0.778374 0.24943,0.46911 0.24944,-0.708877 0.24943,1.92277 0.24943,-1.071423 0.24943,0.01737 0.24944,-1.337831 0.49886,-1.422386 0.24944,2.798441 0.24943,-1.405012 0.24943,1.108488 0.24943,1.658679 0.24943,-0.457527 0.7483,-5.921204 0.24943,4.109631 0.24944,-0.816598 0.24943,-1.747867 0.24943,0.277991 0.24943,-1.165245 0.24944,1.108488 0.24943,3.787625 0.24943,-4.723527 0.24943,-0.366021 0.24944,1.055206 0.24943,0.02664 0.24943,-2.176436 0.24943,1.349414 0.24944,-0.0834 0.24943,-0.217759 0.24943,-1.227793 0.24943,1.123546 0.24944,2.313115 0.24943,-1.969101 0.24943,-1.047099 0.24943,-0.471426 0.24944,-1.713118 0.24943,4.610014 0.24943,0.319689 0.24943,-3.469093 0.24944,-0.678761 0.24943,0.678761 0.24943,1.381846 0.24943,-0.574515 0.24944,-0.08687 0.24943,-0.798065 0.24943,-2.756742 0.24943,3.404229 0.24944,-1.476826 0.24943,-0.369496 0.24943,0.609263 0.49886,-1.335514 0.24944,3.160987 0.24943,-3.862914 0.24943,2.447477 0.24943,-1.347097 0.24944,-0.07529 0.24943,0.111196 0.24943,0.662545 0.49887,0.352122 0.24943,-0.39382 0.24943,-1.199994 0.24943,-2.10578 0.24944,-0.674128 0.24943,3.37643 0.24943,-2.578365 0.24943,2.062924 v 0" />
        </g>
      </g>
      <g
         id="g2055">
        <g
           clip-path="url(#clipPath2061)"
           id="g2057">
          <path
             inkscape:connector-curvature="0"
             id="path2063"
             style="fill:none;stroke:#009e73;stroke-width:1;stroke-linecap:butt;stroke-linejoin:round;stroke-miterlimit:10;stroke-dasharray:3.7, 1.6;stroke-dashoffset:0;stroke-opacity:1"
             d="m 42.630296,170.44191 0.249433,21.769 0.249432,-2.44748 0.498865,-10.11191 0.249433,11.03044 0.748297,-14.53544 0.249433,10.38874 0.249432,-6.79108 0.249433,3.07759 0.249432,0.86988 0.249432,-13.46055 0.249433,15.88486 0.249432,-7.85787 0.498865,-4.02392 0.249433,6.80151 0.249432,-11.23662 0.249433,0.14015 0.249432,10.6123 0.249433,-6.41348 0.249432,1.53127 0.498865,-11.30844 0.498865,24.8408 0.249432,-23.89331 0.249433,3.64168 0.249432,1.38995 0.249433,6.84089 0.249432,-11.04318 0.249433,9.46674 0.498865,-8.01076 0.249432,-4.72469 0.498865,-2.92817 0.249432,10.90071 0.249433,-3.97874 0.249432,-0.90115 0.249433,-4.27527 0.249432,-1.87296 0.249433,2.46717 0.249432,-1.90656 0.249433,9.69841 0.249432,-11.85515 0.249433,19.62731 0.249432,-19.32036 0.249433,1.90655 0.249432,6.55479 0.249432,0.28726 0.249433,-9.12042 0.249432,4.40384 0.249433,-7.16058 0.249432,1.73049 0.249433,14.68139 0.249432,-16.73504 0.249433,5.88529 0.249432,-0.48301 0.249433,5.22971 0.249432,-0.20386 0.249433,-6.63008 0.249432,10.23122 0.249432,0.322 0.498865,-12.04627 0.249433,-0.82586 0.249432,6.21309 0.249433,-10.45013 0.249432,9.58257 0.249433,0.14595 0.249432,-7.82429 0.249433,6.29881 0.249432,3.18995 0.498865,-8.65478 0.249432,-5.22044 0.249433,9.20729 0.249432,-3.36022 0.249433,2.60964 0.249432,-4.70963 0.249433,4.79071 0.249432,-1.45945 0.249433,-5.89688 0.249432,0.16216 0.249433,12.40418 0.249432,-14.47753 0.498865,9.59648 0.249432,-9.33354 0.249433,6.41811 0.249432,-2.25057 0.249433,-8.90497 0.249432,6.92197 0.249433,1.62741 0.249432,-9.89995 0.249433,7.45826 0.249432,-0.2444 0.249433,0.12857 0.249432,1.98879 0.249433,-0.68571 0.249432,3.29072 0.249432,-7.93896 0.249433,10.9679 0.249432,-8.99069 0.249433,-1.6691 0.498865,8.21 0.249432,-7.93201 0.249433,-3.43898 0.249432,1.2 0.249433,-5.79958 0.249432,8.15207 0.249433,1.73745 0.249432,-5.2216 0.249432,2.98956 0.249433,5.05828 0.249432,-3.75404 0.249433,-1.70153 0.249432,1.26949 0.249433,-5.97333 0.498865,2.50308 0.249432,-8.23316 0.249433,0.18764 0.249432,8.0849 0.249433,-9.2652 0.748297,18.81882 0.249432,-11.73932 0.249433,6.44707 0.498865,-10.77215 0.249432,3.60809 0.249433,-0.43088 0.249432,-0.77259 0.249433,4.67025 0.249432,-7.27641 0.498865,5.00383 0.249432,-2.2969 0.249433,-10.29145 0.249432,6.74244 0.249433,0.93011 0.249432,-0.61042 0.249433,-1.64362 0.249432,7.99918 0.249433,-2.39303 0.249432,-0.0498 0.249433,-7.3656 0.249432,6.25943 0.249433,-1.07027 0.748297,-9.99956 0.249432,8.33857 0.249433,-5.44283 0.249432,7.50228 0.249433,-5.21581 0.249432,-2.65828 0.249433,2.51002 0.249432,4.65635 0.249433,-7.12699 0.249432,2.81813 0.498865,-7.84281 0.249432,1.67489 0.249433,9.49339 0.249432,-5.34554 0.249433,0.43436 0.249432,2.47876 0.249433,-9.39378 0.249432,0.26062 0.249433,-0.23629 0.249432,9.95091 0.249433,-6.18414 0.498865,9.04629 0.498864,-14.01306 0.249433,4.37025 0.249432,-0.31042 0.249433,6.38684 0.249432,-14.05475 0.249433,6.08104 0.249432,0.66371 0.249433,5.10344 0.249432,-7.14899 0.249433,2.90384 0.249432,-4.3158 0.249433,0.70192 0.249432,-2.08493 0.249432,4.25442 0.249433,0.38455 0.249432,-3.94747 0.249433,1.31235 0.249432,-1.77219 0.249433,4.35403 0.249432,-10.2011 0.249433,9.18296 0.249432,0.022 0.249433,-2.08493 0.249432,3.83743 0.249433,0.26756 0.498864,-9.13547 0.249433,6.7656 0.249432,-3.84785 0.249433,-13.09105 0.498865,21.53618 0.249432,-14.459 0.249433,12.56518 0.498865,-11.06287 0.249432,6.96946 0.249433,-2.75095 0.249432,0.30695 0.249432,0.56756 0.249433,-9.9289 0.249432,7.72467 0.249433,-3.11929 0.249432,2.43473 0.249433,0.12626 0.249432,2.62122 0.249433,-4.33897 0.249432,1.88686 0.249433,-4.75017 0.249437,2.65713 0.24943,-9.39377 0.24943,3.80963 0.24943,6.81541 0.24944,-11.22504 0.24943,3.84322 0.24943,-2.14168 0.24943,1.96794 0.24944,6.86753 0.24943,-13.13854 0.24943,7.00421 0.24943,-3.71118 0.24944,-0.0371 0.24943,1.42123 0.24943,0.38571 0.24943,0.92895 0.24943,3.30114 0.24944,-0.79922 0.24943,-6.89186 0.24943,-0.33938 0.24943,-1.37026 0.24944,4.16291 0.24943,-0.44131 0.24943,1.0888 0.24943,-2.53667 0.24944,-0.27683 0.24943,3.11002 0.24943,-2.90732 0.24943,1.92045 0.24944,-11.066346 0.24943,4.874106 0.24943,-3.952103 0.24943,7.665593 0.24944,3.39033 0.24943,-6.61965 0.24943,-2.96524 0.24943,1.18146 0.24944,6.13433 0.24943,-0.46563 0.24943,-10.367901 0.24943,6.967141 0.24944,3.5328 0.24943,0.47954 0.24943,-8.33162 0.24943,-0.0405 0.24944,5.79727 0.24943,-2.95481 0.24943,3.44361 0.24943,-9.160957 0.24944,6.487607 0.24943,-0.94169 0.49886,2.39883 0.24944,-0.93938 0.24943,-9.715777 0.24943,8.526207 0.24943,-0.45057 0.24944,3.60808 0.24943,-2.82624 0.24943,-0.74594 0.24943,-1.99458 0.24944,0.4888 0.24943,-4.210403 0.24943,-2.084931 0.24943,0.869879 0.24944,6.338195 0.24943,-3.932416 0.24943,2.730096 0.24943,-7.008838 0.24944,0.159845 0.24943,7.841653 0.24943,-1.92045 0.24943,1.93899 0.24944,-14.972124 0.24943,11.614224 0.24943,1.85559 0.24943,-0.868723 0.24944,-11.401098 0.49886,8.946671 0.24943,-0.187644 0.24944,-2.031649 0.24943,0.771424 0.49886,-5.188003 0.24943,7.045908 0.24944,-0.265249 0.24943,-7.928529 0.24943,5.412712 0.24943,-3.433186 0.24944,5.196111 0.24943,-1.614663 0.24943,-8.46482 0.24943,9.049759 0.24944,0.547873 0.24943,1.329723 0.24943,-8.285284 0.24943,8.753235 0.24944,-3.565232 0.24943,1.129338 0.24943,-3.814266 0.24943,0.412353 0.24944,5.906147 0.24943,-9.419255 0.24943,0.01622 0.24943,4.358664 0.24944,-5.990702 0.24943,9.609216 0.24943,-10.135082 0.24943,-3.360214 0.24944,6.593016 0.24943,-0.01738 0.24943,-0.634745 0.24943,-5.617731 0.24944,1.955202 0.24943,3.787624 0.24943,-4.601906 0.24943,-1.076056 0.24944,5.857498 0.24943,-6.817724 0.24943,1.267174 0.24943,0.183011 0.24943,-7.942429 0.24944,2.338598 0.24943,4.291483 0.24943,7.504593 0.24943,-7.788375 0.24944,5.059432 0.24943,-4.003067 0.24943,4.215035 0.24943,-1.733967 0.24944,-2.625855 0.24943,-9.684505 0.24943,6.303442 0.24943,0.07645 0.24944,2.055974 0.24943,1.106171 0.24943,-5.67217 0.24943,4.186078 0.24944,-2.018908 0.24943,5.43472 0.24943,-6.574482 0.24943,6.164446 0.24944,-0.905787 0.24943,-6.482977 0.24943,7.688762 0.49887,-13.065568 0.49886,7.875248 0.24943,-1.140921 0.24944,-4.767542 0.24943,1.538216 0.24943,10.732761 0.24943,-8.361731 0.24944,-4.53125 0.24943,5.576032 0.24943,2.665237 0.24943,-5.733561 0.24944,4.689937 0.24943,-2.671028 0.24943,0.60463 0.24943,-4.249785 0.24944,1.011192 0.24943,2.592264 0.24943,-3.169095 0.24943,-1.070265 0.24944,2.88068 0.24943,1.275283 0.24943,-1.650571 0.24943,1.12123 0.24944,-4.003068 0.24943,7.235869 0.24943,-5.000359 0.24943,-0.03938 0.24944,3.245542 0.24943,-8.333932 0.24943,5.514642 0.24943,-8.001501 0.24944,8.227369 0.24943,-3.105389 0.24943,0.07297 0.24943,1.472193 0.24944,6.126222 0.24943,-8.645514 0.24943,-0.565248 0.24943,3.114655 0.24943,-5.907304 0.24944,5.405762 0.24943,2.651338 0.24943,-9.582575 0.49887,7.934321 0.24943,-0.496909 0.24943,-7.726986 0.24944,2.047866 0.24943,0.16332 0.24943,0.677602 0.24943,5.365223 0.24943,-10.416547 0.24944,10.408439 0.24943,-2.977977 0.24943,-1.461768 0.24943,-6.474869 0.24944,2.892262 0.24943,-2.913112 0.24943,9.311534 0.24944,-0.467951 0.49886,-4.588007 0.24943,-3.582606 0.24943,2.197285 0.24944,4.438587 0.24943,0.662545 0.24943,-2.090723 0.24943,4.670246 0.24944,-8.83895 0.24943,-2.686086 0.24943,4.678354 0.24943,-1.613505 0.49887,2.146321 0.24943,-1.449027 0.24943,3.491101 0.24944,-7.235869 0.24943,11.556309 0.24943,-8.295709 0.24943,1.584548 0.24944,-2.57489 0.24943,-4.179128 0.24943,5.193794 0.24943,2.216977 0.24944,-1.218526 0.24943,-2.27605 0.24943,10.16983 0.24943,-13.47792 0.24944,2.599213 0.49886,-3.250175 0.24943,5.852864 0.24944,2.521609 0.24943,-6.328924 0.24943,5.88298 0.24943,-3.706544 0.24944,-0.904628 0.24943,1.611188 0.24943,-3.615039 0.24943,1.20231 0.24944,0.366022 0.24943,0.993817 0.24943,-1.626246 0.24943,-2.650179 0.24943,0.119304 0.49887,7.298417 0.24943,-1.803465 0.49887,-7.809225 0.24943,8.187987 0.7483,-8.377948 0.24943,6.509618 0.24943,-4.067932 0.24943,-2.083773 0.24944,5.450937 0.24943,-0.356755 0.49886,-7.389922 v 0" />
        </g>
      </g>
      <g
         id="g2065">
        <g
           clip-path="url(#clipPath2071)"
           id="g2067">
          <path
             inkscape:connector-curvature="0"
             id="path2073"
             style="fill:none;stroke:#d55e00;stroke-width:1;stroke-linecap:butt;stroke-linejoin:round;stroke-miterlimit:10;stroke-dasharray:1, 1.65;stroke-dashoffset:0;stroke-opacity:1"
             d="m 42.630296,141.69535 0.498865,-2.9525 0.249433,1.54169 0.249432,5.38144 0.249433,-5.06059 0.249432,1.38069 0.249433,-1.0054 0.249432,1.56022 0.249433,-4.40499 0.249432,3.56755 0.249433,-4.11079 0.249432,3.38338 0.249432,-3.21196 0.249433,-0.17953 0.249432,-0.0139 0.249433,-2.64207 0.249432,-0.7332 0.249433,2.61659 0.249432,-2.59227 0.249433,-1.0332 0.249432,-3.46098 0.249433,4.80808 0.249432,-4.07372 0.249433,1.983 0.249432,-2.4857 0.249432,0.42972 0.249433,-1.94477 0.249432,0.43088 0.498865,-0.36254 0.249433,-0.0243 0.249432,-1.53011 0.249433,-2.43705 0.249432,0.67413 0.748298,-0.96949 0.249432,2.65017 0.498865,-6.88258 0.249432,3.31967 0.249433,-0.16448 0.249432,-2.04902 0.249433,1.04826 0.249432,-1.58919 0.249433,1.29614 0.249432,-3.53396 0.249433,2.91427 0.249432,1.06216 0.249433,-0.51429 0.249432,-2.63049 0.249432,2.23667 0.249433,-1.81968 0.249432,-0.92895 0.249433,2.25867 0.249432,-1.54053 0.249433,2.09536 0.249432,-3.344 0.249433,-0.63706 0.498865,4.3992 0.249432,-3.32894 0.249433,-0.34749 0.249432,1.35057 0.249432,-0.42625 0.249433,-3.6938 0.249432,3.68338 0.249433,-2.06756 0.249432,-0.85945 0.249433,-0.0683 0.249432,2.57604 0.249433,-2.07682 0.249432,-1.08995 0.249433,0.35328 0.249432,0.83976 0.249433,0.21544 0.249432,-1.70501 0.249432,2.43242 0.249433,-2.18107 0.249432,1.4386 0.249433,-2.97913 0.249432,4.86831 0.249433,-1.45018 0.249432,0.29073 0.249433,-2.53551 0.498865,3.75288 0.249432,-4.9436 0.249433,0.13899 0.249432,5.2436 0.249432,-5.06985 0.249433,1.59844 0.249432,0.62664 0.249433,-3.83975 0.249432,4.24979 0.249433,-4.44091 0.249432,7.13626 0.249433,-4.72584 0.748297,3.60577 0.249433,-4.08068 0.249432,1.54169 0.249432,-1.36215 0.249433,1.07374 0.249432,-2.5274 0.249433,0.29768 0.249432,2.93396 0.249433,0.5722 0.249432,-0.40424 0.249433,0.77837 0.249432,-2.11968 0.249433,1.35173 0.249432,-1.80115 0.249433,0.65212 0.249432,-0.9776 0.249432,2.50423 0.249433,-0.40192 0.249432,-2.54594 0.249433,0.63475 0.498865,2.53667 0.249432,-3.51311 0.249433,-0.79691 0.249432,1.03667 0.249433,2.35482 0.498865,-3.04979 0.249432,2.85867 0.498865,-3.09381 0.249432,4.61233 0.249433,-0.98918 0.249432,0.91042 0.249433,-4.66561 0.249432,-0.44942 0.249433,3.29998 0.249432,-0.18649 0.249433,2.54594 0.249432,-4.05983 0.249433,1.37143 0.249432,0.49922 0.249432,2.36524 0.249433,-2.3803 0.748297,-2.41504 0.249433,3.10191 0.249432,-2.07219 0.249433,2.00964 0.249432,-0.96486 0.249433,-2.5494 0.249432,1.42933 0.249433,2.50771 0.249432,-1.94941 0.249432,3.11118 0.249433,-6.89301 0.249432,1.01351 0.249433,5.00846 0.249432,-3.56639 0.498865,4.97256 0.249433,-5.12082 0.249432,0.30116 0.249433,3.23859 0.249432,-1.56601 0.249433,2.46253 0.249432,-4.10384 0.249432,1.46293 0.249433,0.1193 0.249432,1.28455 0.498865,-3.43898 0.249433,2.27837 0.249432,-1.3471 0.249433,3.23628 0.249432,-2.80307 0.249433,1.28455 0.249432,1.9552 0.249433,-4.86253 0.249432,1.37838 0.498865,4.51387 0.249432,-4.28569 0.249433,1.26602 0.249432,3.26176 0.249433,-3.89999 0.249432,0.63475 0.249433,-1.83242 0.249432,2.40346 0.249433,-0.22818 0.249432,-2.6942 0.249433,3.4274 0.249432,1.71891 0.249432,-5.47295 0.249433,-1.32277 0.249432,2.6606 0.249433,-0.75868 0.249432,0.59536 0.249433,1.94826 0.249432,-2.66872 0.249433,0.65328 0.498865,-1.33899 0.249432,-3.42276 0.498865,6.70537 0.249432,-0.87914 0.249433,-2.03513 0.249432,4.62623 0.498865,-6.3602 0.249433,6.31619 0.249432,-5.87487 0.249433,4.91812 0.249432,-0.23398 0.249433,-2.53435 0.249432,0.41235 0.249433,0.91158 0.249432,-0.19459 0.249432,0.99961 0.249433,-1.73976 0.249432,2.76021 0.498865,-1.83937 0.249433,-2.05713 0.249432,2.79612 0.249433,0.41815 0.249432,-4.74785 0.249433,4.06793 0.249437,-0.93938 0.24943,0.14942 0.24943,-0.0788 0.24943,-0.44015 0.24944,0.11814 0.24943,1.7027 0.24943,-2.42663 0.24943,0.161 0.24944,1.17567 0.24943,-4.73395 0.24943,6.59186 0.24943,-2.04671 0.49887,-0.91505 0.24943,1.05984 0.24943,1.74091 0.24943,-1.43744 0.24944,0.44131 0.24943,-2.67566 0.24943,3.42971 0.24943,-1.40501 0.24944,2.68261 0.24943,-3.87102 0.24943,2.32701 0.24943,-1.45598 0.24944,2.17181 0.24943,-2.71041 0.24943,0.97296 0.24943,2.90269 0.24944,-3.50268 0.24943,1.75134 0.24943,-1.5498 0.24943,0.10309 0.24944,-3.41581 0.24943,1.89265 0.24943,4.10152 0.24943,-4.00886 0.24944,4.07489 0.24943,-3.3162 0.24943,-0.90695 0.24943,0.0915 0.24944,2.19381 0.24943,-0.70193 0.24943,-1.8081 0.7483,4.17218 0.24943,-3.66716 0.49887,3.966 0.24943,0.0915 0.24943,-6.61271 0.24943,3.13898 0.49887,2.06293 0.24943,-4.03087 0.24943,2.27026 0.24944,0.73088 0.24943,-0.26177 0.24943,-2.4081 0.24943,0.54787 0.24944,2.30269 0.24943,0.0811 0.24943,1.0274 0.24943,-4.01233 0.24944,2.444 0.24943,-2.01543 0.24943,-1.01699 0.24943,2.79265 0.49887,2.29111 0.24943,-2.3664 0.24943,0.29769 0.24944,-3.56755 0.49886,4.81619 0.24943,-0.39035 0.24944,-1.85095 0.24943,0.78996 0.24943,2.85288 0.24943,-2.07219 0.24944,0.28957 0.24943,0.6359 0.24943,-2.33628 0.24943,2.71852 0.24943,-2.4996 0.24944,2.54709 0.24943,-1.9969 0.24943,3.4494 0.24943,-3.04747 0.24944,2.22277 0.24943,-1.75019 0.24943,0.78996 0.24943,-3.95442 0.24944,2.70114 0.24943,-0.0834 0.24943,-1.99227 0.24943,3.19921 0.24944,-0.35675 0.24943,-1.12471 0.24943,1.87297 0.24943,0.45289 0.24944,-2.77875 0.24943,2.41968 0.24943,-2.50308 0.24943,0.72046 0.24944,0.0788 0.24943,1.81157 0.24943,-2.23667 0.24943,0.0417 0.24944,-0.30463 0.24943,1.13513 0.49886,-2.90385 0.49887,2.20771 0.24943,-2.28184 0.24943,1.60424 0.24944,-0.0139 0.24943,-1.28107 0.24943,2.97681 0.24943,-1.50462 0.24943,2.22972 0.24944,-0.23514 0.24943,-2.79149 0.24943,2.34092 0.24943,-3.52585 0.24944,4.51156 0.24943,-4.52083 0.24943,4.00423 0.24943,-1.55559 0.24944,1.60076 0.24943,0.85714 0.24943,-3.26755 0.24943,0.32779 0.49887,1.59034 0.24943,-1.56949 0.24943,1.21621 0.24944,-0.27335 0.24943,0.009 0.24943,-2.85404 0.24943,1.88918 0.24944,-1.20578 0.24943,3.4216 0.24943,0.86525 0.24943,-3.25597 0.24944,0.80965 0.24943,0.16911 0.24943,0.57567 0.24943,0.12162 0.24944,-1.19652 0.24943,-1.98647 0.24943,-0.46564 0.49887,2.58995 0.24943,-0.97181 0.49886,2.02354 0.49887,-2.36871 0.24943,4.07025 0.49887,-4.35635 0.49886,3.05327 0.24943,-0.1946 0.24944,0.003 0.24943,-0.46911 0.24943,0.55714 0.24943,-1.98648 0.24944,2.15559 0.24943,-3.13666 0.49886,3.17604 0.49887,-3.61851 0.24943,2.42778 0.24943,0.58958 0.24944,-0.68919 0.49886,-0.18649 0.24943,0.0127 0.49887,-1.94478 0.49886,3.68106 0.24943,-0.0324 0.7483,-2.02007 0.24943,2.12432 0.24944,-1.13745 0.24943,0.47258 0.24943,-2.31543 0.24944,1.7803 0.24943,2.9247 0.24943,-3.93705 0.24943,0.12046 0.49887,-1.18725 0.24943,1.75134 0.24943,-2.53898 0.24943,4.16175 0.24944,-2.40809 0.24943,0.98918 0.24943,-0.86524 0.24944,1.88339 0.24943,-1.11081 0.24943,1.24633 0.24943,2.93048 0.24943,-0.80849 0.24944,-4.06214 0.49886,-1.18841 0.24943,4.61465 0.24944,-0.99614 0.24943,-3.13318 0.24943,1.19767 0.24943,-1.86948 0.49887,5.36406 0.24943,-4.23241 0.24943,0.7471 0.24944,-1.98416 0.24943,2.01543 0.24943,-0.30579 0.24943,0.63012 0.24944,-2.95018 0.24943,0.58841 0.24943,0.18417 0.24943,3.55828 0.24944,-2.36871 0.24943,-0.87799 0.24943,1.25096 0.24943,-2.12431 0.24944,0.57915 0.24943,2.50771 0.24943,1.36562 0.24943,-1.86832 0.24944,-0.62317 0.24943,1.20231 0.24943,0.0336 0.24943,3.03705 0.24944,-2.14864 0.24943,-0.84323 0.24943,-2.07219 0.24943,4.46291 0.24944,-3.90809 0.24943,1.24169 0.24943,-1.5996 0.24943,5.22622 0.24943,-4.94707 0.24944,1.5718 0.24943,-2.3189 0.24943,1.19999 0.24943,0.49343 0.24944,-0.45752 0.24943,-1.17567 0.24943,1.78261 0.24943,0.39151 0.24944,1.34246 0.24943,0.28726 0.24943,-2.39999 0.24943,0.9081 0.24944,-0.76331 0.24943,2.33628 0.49886,-3.81658 v 0" />
        </g>
      </g>
      <g
         id="g2075">
        <g
           clip-path="url(#clipPath2081)"
           id="g2077">
          <path
             inkscape:connector-curvature="0"
             id="path2083"
             style="fill:none;stroke:#cc79a7;stroke-width:1;stroke-linecap:butt;stroke-linejoin:round;stroke-miterlimit:10;stroke-dasharray:6.4, 1.6, 1, 1.6;stroke-dashoffset:0;stroke-opacity:1"
             d="m 42.630296,173.09904 0.498865,-18.03813 0.249433,27.84194 0.249432,-21.21301 0.249433,0.63937 0.249432,3.67991 0.249433,22.04235 0.249432,-24.50605 0.249433,19.96322 0.249432,-15.98216 0.249433,10.45941 0.249432,-7.10962 0.249432,-20.28174 0.249433,2.9884 0.249432,21.22691 0.249433,-20.83888 0.498865,15.85127 0.249432,-2.3247 0.249433,-20.41148 0.249432,13.18256 0.249433,-10.51616 0.249432,13.05977 0.498865,-15.50146 0.249432,11.2343 0.249433,-0.74825 0.249432,2.78801 0.249433,-1.20231 0.249432,-4.54515 0.249433,-14.1949 0.249432,14.69992 0.249433,0.47374 0.249432,1.0749 0.249433,-14.50069 0.249432,12.62193 0.249433,-10.82774 0.249432,14.5644 0.498865,-6.82004 0.249432,-2.5413 0.249433,1.29614 0.249432,-3.5108 0.249433,-1.07258 0.249432,-6.58722 0.249433,13.37483 0.498865,-4.21388 0.249432,-8.96752 0.249433,10.47099 0.249432,-8.94204 0.249432,0.42394 0.249433,6.90112 0.249432,3.50616 0.249433,-3.16214 0.249432,-0.38688 0.249433,-15.31729 0.249432,8.91192 0.249433,-1.49072 0.249432,3.32778 0.249433,5.69302 0.249432,-0.88494 0.249433,-13.06904 0.249432,6.25711 0.249432,-4.1606 0.249433,0.42741 0.249432,7.99919 0.249433,1.69574 0.249432,-14.42077 0.249433,12.61499 0.249432,-12.61383 0.498865,10.40496 0.249433,-10.32388 0.249432,3.83164 0.249433,1.26138 0.249432,7.96328 0.249432,2.7996 0.249433,-19.09102 0.249432,4.66446 0.249433,7.20343 0.249432,-0.39266 0.249433,-6.67525 0.249432,7.46752 0.249433,-0.83976 0.249432,-1.42934 0.249433,-7.84629 0.249432,8.61077 0.249433,-0.8305 0.249432,-6.5351 0.249432,-2.62701 0.249433,5.58298 0.249432,-2.39188 0.249433,5.4046 0.249432,1.23591 0.498865,-7.83703 0.249433,1.03204 0.249432,6.32082 0.249433,-0.43436 0.249432,-11.80998 0.249433,11.63739 0.249432,-7.96907 0.249432,7.20112 0.249433,-11.61306 0.249432,7.44552 0.249433,-7.95981 0.249432,-0.26177 0.748298,10.29377 0.249432,-0.0475 0.249433,-10.58103 0.249432,2.92006 0.249433,-5.77641 0.249432,10.837 0.249432,3.81195 0.249433,-12.31962 0.249432,-4.19651 0.249433,12.5177 0.249432,-2.60964 0.249433,-1.31003 0.249432,4.26252 0.498865,-10.42928 0.249433,4.1687 0.249432,-0.74131 0.249433,-6.64398 0.249432,-0.96254 0.249432,13.40726 0.748298,-11.38256 0.249432,2.28415 0.249433,8.55054 0.249432,-7.41656 0.498865,4.09109 0.249433,-5.86444 0.249432,3.97642 0.498865,-6.66019 0.249432,5.99997 0.249433,-0.20502 0.498865,-7.85672 0.249432,5.82738 0.249433,2.63976 0.249432,-7.72467 0.249433,6.4019 0.249432,-1.85907 0.249433,-2.77411 0.249432,-6.65441 0.249433,2.69767 0.249432,-2.00733 0.249432,6.9463 0.249433,2.33281 0.249432,-1.99459 0.249433,0.58726 0.249432,-3.21311 0.498865,-2.92933 0.249433,4.27179 0.249432,-2.48686 0.498865,-1.20115 0.249433,-3.91851 0.249432,3.93936 0.249432,-1.81505 0.249433,-0.44015 0.249432,3.89766 0.249433,-7.24745 0.249432,7.58104 0.249433,-3.33589 0.249432,-0.44247 0.249433,-4.13395 0.249432,4.84515 0.249433,0.59536 0.249432,-1.74439 0.249433,-0.2641 0.249432,0.84672 0.249432,-1.46293 0.249433,-0.50849 0.249432,-5.16368 0.249433,9.32544 0.249432,-3.51891 0.249433,-0.71119 0.498865,-3.15288 0.249432,0.46795 0.249433,-6.10769 0.249432,4.40963 0.249433,0.1946 0.249432,5.23317 0.498865,-4.72816 0.249432,-4.01696 0.249433,3.44245 0.249432,-7.98413 0.249433,7.10382 0.249432,-0.783 0.249433,-1.40849 0.249432,3.36137 0.249433,1.25907 0.249432,-0.67181 0.249433,-4.58685 0.249432,3.44593 0.249432,-1.48609 0.249433,-0.11352 0.249432,-7.58567 0.498865,4.30654 0.249433,-0.0429 0.249432,-6.260582 0.498865,4.810402 0.249433,-0.0359 0.249432,-1.79883 0.249433,1.88802 0.249432,-2.50308 0.249432,3.89535 0.249433,1.23358 0.249432,-9.101879 0.249433,7.582199 0.249432,-6.419271 0.249433,6.965981 0.249432,-2.13242 0.249433,3.00925 0.249432,-2.03512 0.249433,-8.711536 0.249437,0.349805 0.24943,5.294561 0.24943,-0.31273 0.24943,-0.813127 0.24944,0.04981 0.24943,-4.350556 0.24943,1.241692 0.24943,3.535117 0.24944,-9.883731 0.24943,-0.846714 0.24943,4.277583 0.24943,7.940106 0.49887,-4.24167 0.24943,-2.238984 0.24943,2.605005 0.24943,-4.091097 0.24944,0.706559 0.24943,2.653654 0.24943,-5.949003 0.24943,0.487642 0.24944,6.476028 0.24943,-9.277943 0.24943,7.592624 0.24943,-1.498834 0.24944,-0.667178 0.24943,-4.5243 0.24943,4.869472 0.24943,-3.174887 0.24944,-1.528949 0.24943,-0.114671 0.24943,3.291874 0.24943,-4.509242 0.24944,4.034341 0.24943,-7.68992 0.24943,5.131246 0.24943,-3.911562 0.24944,5.029317 0.24943,-2.972185 0.24943,3.818899 0.24943,-0.318531 0.24944,-3.955578 0.24943,-1.54169 0.24943,3.005775 0.24943,-0.976443 0.24944,-3.061373 0.24943,6.855948 0.24943,-1.737443 0.24943,-6.233943 0.24944,0.616213 0.24943,1.932036 0.24943,-1.319298 0.24943,0.807331 0.24944,1.345939 0.24943,-2.437053 0.24943,-6.584907 0.24943,7.600732 0.24944,1.155978 0.24943,-4.696886 0.24943,-0.457526 0.24943,0.780691 0.24944,-0.82934 0.24943,1.579915 0.49886,-6.735486 0.24944,7.674863 0.24943,-6.246685 0.24943,5.911938 0.24943,-3.055583 0.24944,2.403463 0.24943,-1.980685 0.24943,1.801149 0.24943,-3.420445 0.24944,0.90347 0.24943,-0.288416 0.24943,1.520842 0.24943,-1.77335 0.24944,5.23086 0.24943,-7.003051 0.49886,0.774899 0.24944,-3.150562 0.24943,1.550957 0.49886,1.540532 0.49887,-2.827398 0.49886,3.203844 0.7483,-3.968319 0.24943,1.299607 0.24943,-5.031633 0.24944,2.940911 0.24943,-3.302299 0.24943,4.804607 0.24943,-2.946702 0.24944,1.751342 0.24943,-3.889555 0.49886,3.908088 0.24944,1.74555 0.24943,-5.438195 0.24943,-0.202701 0.49887,3.419286 0.24943,-4.938969 0.24943,3.412337 0.24943,-4.019284 0.24944,3.721602 0.24943,-5.191478 0.24943,4.537041 0.24943,0.320848 0.49887,-3.017359 0.24943,-3.493417 0.24943,5.276033 0.24944,-6.911546 0.24943,6.635872 0.24943,-2.672186 0.49886,-0.240926 0.24944,0.159845 0.24943,3.460985 0.24943,0.986868 0.49887,-4.408471 0.24943,1.150187 0.24943,-3.372955 0.24943,0.262933 0.49887,1.060998 0.24943,0.740151 0.24943,-3.021992 0.24944,4.057507 0.24943,1.47451 0.24943,-6.520043 0.24943,1.450186 0.24944,2.71736 0.24943,-3.39033 0.24943,-0.206176 0.24943,1.685319 0.24944,-0.319689 0.24943,2.243617 0.49886,-3.188786 0.24944,0.06139 0.24943,-0.428569 0.24943,-3.326623 0.24943,3.500368 0.24944,-0.861772 0.24943,4.332023 0.24943,-6.214252 0.24943,-0.562932 0.24944,1.482618 0.24943,-1.010033 0.24943,-3.083382 0.24943,1.881071 0.24944,0.301157 0.24943,1.541691 0.24943,-0.745942 0.24943,0.78764 0.24944,-4.437428 0.24943,5.191478 0.24943,-3.266391 0.24943,0.33938 0.24944,-1.261383 0.49886,2.689561 0.24943,0.105405 0.49887,-4.241677 0.24943,0.261775 0.24943,1.67142 0.24944,0.2305 0.24943,2.69072 0.24943,-3.214269 0.49887,3.318515 0.24943,-2.856355 0.24943,0.194593 0.24943,-1.724701 0.24944,5.181054 0.24943,-5.894564 0.24943,5.369856 0.24943,-6.948612 0.49887,2.657129 0.24943,0.134362 0.24943,1.014667 0.24943,-0.521233 0.24944,1.083006 0.24943,-2.430103 0.24943,0.200385 0.24944,1.117754 0.24943,-0.715826 0.49886,-3.155195 0.24943,2.829714 0.24944,-2.176436 0.24943,0.737834 0.24943,-1.176828 0.24943,2.366397 0.24944,-0.627796 0.24943,-1.776825 0.24943,-4.340131 0.24944,5.206536 0.24943,-2.018908 0.49886,3.371797 0.24943,-2.18107 0.24944,2.66987 0.24943,-2.500759 0.24943,0.701927 0.24943,-0.552507 0.24944,1.510417 0.24943,0.371813 0.24943,-0.657912 0.24943,2.36408 0.24944,-5.096498 0.24943,3.837432 0.49886,-6.091474 0.24944,6.299967 0.24943,-2.874889 0.24943,0.284941 0.24943,-0.205018 0.24944,-4.088782 0.24943,-1.080689 0.24943,1.354047 0.24943,2.981451 0.24944,1.233585 0.24943,-0.983393 0.24943,-1.528949 0.24943,2.31659 0.24944,-7.530076 0.24943,5.150938 0.24943,-2.12663 0.24943,2.45906 0.24944,-1.137445 0.24943,-0.12278 0.24943,-1.345938 0.24943,3.435503 0.24944,-2.314274 0.24943,-0.297682 0.24943,0.57799 0.24943,1.458293 0.24944,-3.816582 0.24943,1.633196 0.24943,0.2583 0.24943,-0.807332 0.24943,-2.431261 0.24944,7.306525 0.49886,-5.617731 0.24943,4.168704 0.24944,0.372971 0.24943,-3.119289 0.24943,-0.815439 0.24943,3.888396 0.49887,-4.706153 0.24943,2.555199 0.49887,-3.543224 0.24943,5.732402 0.24943,-4.252101 0.24943,-0.0973 v 0" />
        </g>
      </g>
      <g
         id="g2085">
        <path
           inkscape:connector-curvature="0"
           id="path2087"
           style="fill:none;stroke:#000000;stroke-width:0.80000001;stroke-linecap:square;stroke-linejoin:miter;stroke-miterlimit:10;stroke-dasharray:none;stroke-opacity:1"
           d="M 36.406957,42.443366 V 181.43877" />
        <path
           inkscape:connector-curvature="0"
           id="path2089"
           style="fill:none;stroke:#000000;stroke-width:0.80000001;stroke-linecap:square;stroke-linejoin:miter;stroke-miterlimit:10;stroke-dasharray:none;stroke-opacity:1"
           d="M 42.380864,32.84 H 166.84766" />
        <text
           id="text2093"
           style="font-style:normal;font-variant:normal;font-weight:bold;font-stretch:normal;font-size:9px;font-family:'Helvetica Neue';-inkscape-font-specification:'Helvetica Neue Bold';writing-mode:lr-tb;fill:#000000;fill-opacity:1;fill-rule:nonzero;stroke:none"
           transform="matrix(1,0,0,-1,9.0242609,199.8)">
          <tspan
             id="tspan2091"
             y="0"
             x="0"
             style="font-style:normal;font-variant:normal;font-weight:bold;font-stretch:normal;font-family:'Helvetica Neue';-inkscape-font-specification:'Helvetica Neue Bold'">a</tspan>
        </text>
        <path
           inkscape:connector-curvature="0"
           id="path2095"
           style="fill:none;stroke:#0072b2;stroke-width:1;stroke-linecap:square;stroke-linejoin:round;stroke-miterlimit:10;stroke-dasharray:none;stroke-opacity:1"
           d="m 71.47126,190.3329 h 14.994" />
        <text
           id="text2099"
           style="font-variant:normal;font-weight:normal;font-size:7.49700022px;font-family:'Helvetica Neue';-inkscape-font-specification:HelveticaNeue;writing-mode:lr-tb;fill:#000000;fill-opacity:1;fill-rule:nonzero;stroke:none"
           transform="matrix(1,0,0,-1,90.21376,187.70895)">
          <tspan
             id="tspan2097"
             sodipodi:role="line"
             y="0"
             x="0 4.303278 5.9676118 10.27089 12.355056">Fig.4</tspan>
        </text>
        <path
           inkscape:connector-curvature="0"
           id="path2101"
           style="fill:none;stroke:#009e73;stroke-width:1;stroke-linecap:butt;stroke-linejoin:round;stroke-miterlimit:10;stroke-dasharray:3.7, 1.6;stroke-dashoffset:0;stroke-opacity:1"
           d="m 71.47126,181.5524 h 14.994" />
        <text
           id="text2105"
           style="font-variant:normal;font-weight:normal;font-size:7.49700022px;font-family:'Helvetica Neue';-inkscape-font-specification:HelveticaNeue;writing-mode:lr-tb;fill:#000000;fill-opacity:1;fill-rule:nonzero;stroke:none"
           transform="matrix(1,0,0,-1,90.21376,178.92845)">
          <tspan
             id="tspan2103"
             sodipodi:role="line"
             y="0"
             x="0 4.1683321 8.3366642 12.504996 14.589162 18.757494 22.783382 26.951715 29.448215 33.751495 37.919827">400 neurons</tspan>
        </text>
        <path
           inkscape:connector-curvature="0"
           id="path2107"
           style="fill:none;stroke:#d55e00;stroke-width:1;stroke-linecap:butt;stroke-linejoin:round;stroke-miterlimit:10;stroke-dasharray:1, 1.65;stroke-dashoffset:0;stroke-opacity:1"
           d="m 71.47126,172.86565 h 14.994" />
        <text
           id="text2111"
           style="font-variant:normal;font-weight:normal;font-size:7.49700022px;font-family:'Helvetica Neue';-inkscape-font-specification:HelveticaNeue;writing-mode:lr-tb;fill:#000000;fill-opacity:1;fill-rule:nonzero;stroke:none"
           transform="matrix(1,0,0,-1,90.21376,170.2417)">
          <tspan
             id="tspan2109"
             sodipodi:role="line"
             y="0"
             x="0 5.4128342 9.7161121 11.800278 15.96861 17.632944 22.078665 26.524385 30.550276 34.718609 36.802773 41.248493 42.912827 46.938717 50.687218 53.048771 54.713104 58.738995 60.403328 62.764885">No hidden plasticity</tspan>
        </text>
        <path
           inkscape:connector-curvature="0"
           id="path2113"
           style="fill:none;stroke:#cc79a7;stroke-width:1;stroke-linecap:butt;stroke-linejoin:round;stroke-miterlimit:10;stroke-dasharray:6.4, 1.6, 1, 1.6;stroke-dashoffset:0;stroke-opacity:1"
           d="m 71.47126,164.10077 h 14.994" />
        <text
           id="text2117"
           style="font-variant:normal;font-weight:normal;font-size:7.49700022px;font-family:'Helvetica Neue';-inkscape-font-specification:HelveticaNeue;writing-mode:lr-tb;fill:#000000;fill-opacity:1;fill-rule:nonzero;stroke:none"
           transform="matrix(1,0,0,-1,90.21376,161.47682)">
          <tspan
             id="tspan2115"
             sodipodi:role="line"
             y="0"
             x="0 5.1354451 9.161334 13.329666 17.775387 22.078665 28.473606 30.137939 33.7365 37.76239 42.208111 44.292274 48.318165 52.201611 56.227501 62.62244 67.068161 68.732498 72.758385">Randomized examples</tspan>
        </text>
        <path
           inkscape:connector-curvature="0"
           id="path2119"
           style="fill:#ffffff;fill-opacity:1;fill-rule:nonzero;stroke:none"
           d="m 213.36652,124.42 h 48.4337 v 75.38 h -48.4337 z" />
        <path
           inkscape:connector-curvature="0"
           id="path2121"
           style="fill:#000000;fill-opacity:1;fill-rule:nonzero;stroke:#000000;stroke-width:0.80000001;stroke-linecap:butt;stroke-linejoin:round;stroke-miterlimit:10;stroke-dasharray:none;stroke-opacity:1"
           d="m 213.36652,134.25019 h -3.5" />
        <text
           id="text2125"
           style="font-variant:normal;font-weight:normal;font-size:7.49700022px;font-family:'Helvetica Neue';-inkscape-font-specification:HelveticaNeue;writing-mode:lr-tb;fill:#000000;fill-opacity:1;fill-rule:nonzero;stroke:none"
           transform="matrix(1,0,0,-1,204.21027,131.57831)">
          <tspan
             id="tspan2123"
             y="0"
             x="0">5</tspan>
        </text>
        <path
           inkscape:connector-curvature="0"
           id="path2127"
           style="fill:#000000;fill-opacity:1;fill-rule:nonzero;stroke:#000000;stroke-width:0.80000001;stroke-linecap:butt;stroke-linejoin:round;stroke-miterlimit:10;stroke-dasharray:none;stroke-opacity:1"
           d="m 213.36652,159.61187 h -3.5" />
        <text
           id="text2131"
           style="font-variant:normal;font-weight:normal;font-size:7.49700022px;font-family:'Helvetica Neue';-inkscape-font-specification:HelveticaNeue;writing-mode:lr-tb;fill:#000000;fill-opacity:1;fill-rule:nonzero;stroke:none"
           transform="matrix(1,0,0,-1,204.21027,156.94)">
          <tspan
             id="tspan2129"
             y="0"
             x="0">6</tspan>
        </text>
        <path
           inkscape:connector-curvature="0"
           id="path2133"
           style="fill:#000000;fill-opacity:1;fill-rule:nonzero;stroke:#000000;stroke-width:0.80000001;stroke-linecap:butt;stroke-linejoin:round;stroke-miterlimit:10;stroke-dasharray:none;stroke-opacity:1"
           d="m 213.36652,184.97356 h -3.5" />
        <text
           id="text2137"
           style="font-variant:normal;font-weight:normal;font-size:7.49700022px;font-family:'Helvetica Neue';-inkscape-font-specification:HelveticaNeue;writing-mode:lr-tb;fill:#000000;fill-opacity:1;fill-rule:nonzero;stroke:none"
           transform="matrix(1,0,0,-1,204.21027,182.30168)">
          <tspan
             id="tspan2135"
             y="0"
             x="0">7</tspan>
        </text>
        <text
           id="text2141"
           style="font-variant:normal;font-weight:normal;font-size:9px;font-family:'Helvetica Neue';-inkscape-font-specification:HelveticaNeue;writing-mode:lr-tb;fill:#000000;fill-opacity:1;fill-rule:nonzero;stroke:none"
           transform="matrix(0,1,1,0,199.44465,132.09437)">
          <tspan
             id="tspan2139"
             sodipodi:role="line"
             y="0"
             x="0 6.8400002 11.844 14.679 20.016001 25.02 27.855 30.357 35.855999 42.021 44.522999 46.854 53.352001 57.672001">Output ER [Hz]</tspan>
        </text>
      </g>
      <g
         id="g2143">
        <g
           clip-path="url(#clipPath2149)"
           id="g2145">
          <path
             inkscape:connector-curvature="0"
             id="path2151"
             style="fill:none;stroke:#0072b2;stroke-width:1.5;stroke-linecap:square;stroke-linejoin:round;stroke-miterlimit:10;stroke-dasharray:none;stroke-opacity:1"
             d="m 215.56805,138.2827 0.55735,-7.79872 0.55735,5.4908 0.55735,-3.65208 0.55735,-3.89302 0.55735,1.192 0.55735,2.57421 0.55735,2.63762 0.55735,-2.96732 0.55735,-1.77532 0.55735,0.48187 0.55735,0.58332 0.55735,0.36775 0.55735,0.30434 0.55735,1.40757 0.55735,-2.90391 0.55735,2.40936 0.55735,-0.69745 0.55735,-3.51259 0.55735,1.5851 0.55735,-2.26987 0.55735,68.52728 0.55735,-10.44902 0.55735,5.37668 0.55735,-6.60672 0.55735,4.67923 0.55735,-0.71013 0.55735,1.44562 0.55735,-5.13574 0.55735,2.7771 0.55735,-0.83693 0.55735,-0.13949 0.55735,0.0254 0.55735,1.76264 0.55735,1.94017 0.55735,-1.63583 0.55734,-3.6394 0.55735,5.54152 0.55735,-1.87676 0.55735,-0.0507 0.55735,1.00178 0.55735,-9.57403 0.55735,-6.89838 0.55735,-0.15217 0.55735,3.3731 0.55735,-3.20825 0.55735,2.57421 0.55735,-0.78621 0.55735,-2.40936 0.55735,5.80782 0.55735,-1.14127 0.55735,-5.14842 0.55735,1.66119 0.55735,-5.0977 0.55735,2.61225 0.55735,3.93106 0.55735,-0.90034 0.55735,4.41293 0.55735,-5.44008 0.55735,0.43115 0.55735,0.76085 0.55735,-39.03163 0.55735,-2.66298 0.55735,2.61226 0.55735,-2.61226 0.55735,3.25898 0.55735,-4.62851 0.55735,2.67566 0.55735,0.96374 0.55735,-4.38757 0.55735,4.768 0.55735,-5.46544 0.55735,3.60135 0.55735,2.82783 0.55735,-4.26076 0.55735,1.66119 0.55735,2.09234 0.55735,-0.8623 0.55735,-2.19378 0.55735,0.22825" />
        </g>
      </g>
      <g
         id="g2153">
        <g
           clip-path="url(#clipPath2159)"
           id="g2155">
          <path
             inkscape:connector-curvature="0"
             id="path2161"
             style="fill:none;stroke:#808080;stroke-width:1;stroke-linecap:butt;stroke-linejoin:round;stroke-miterlimit:10;stroke-dasharray:3.7, 1.6;stroke-dashoffset:0;stroke-opacity:1"
             d="m 215.56805,159.61187 h 0.55735 0.55735 0.55735 0.55735 0.55735 0.55735 0.55735 0.55735 0.55735 0.55735 0.55735 0.55735 0.55735 0.55735 0.55735 0.55735 0.55735 0.55735 0.55735 0.55735 0.55735 0.55735 0.55735 0.55735 0.55735 0.55735 0.55735 0.55735 0.55735 0.55735 0.55735 0.55735 0.55735 0.55735 0.55735 0.55734 0.55735 0.55735 0.55735 0.55735 0.55735 0.55735 0.55735 0.55735 0.55735 0.55735 0.55735 0.55735 0.55735 0.55735 0.55735 0.55735 0.55735 0.55735 0.55735 0.55735 0.55735 0.55735 0.55735 0.55735 0.55735 0.55735 0.55735 0.55735 0.55735 0.55735 0.55735 0.55735 0.55735 0.55735 0.55735 0.55735 0.55735 0.55735 0.55735 0.55735 0.55735 0.55735 0.55735" />
        </g>
      </g>
      <g
         id="g2163">
        <path
           inkscape:connector-curvature="0"
           id="path2165"
           style="fill:none;stroke:#000000;stroke-width:0.80000001;stroke-linecap:square;stroke-linejoin:miter;stroke-miterlimit:10;stroke-dasharray:none;stroke-opacity:1"
           d="m 213.36652,134.25019 v 50.72337" />
        <text
           id="text2169"
           style="font-style:normal;font-variant:normal;font-weight:bold;font-stretch:normal;font-size:9px;font-family:'Helvetica Neue';-inkscape-font-specification:'Helvetica Neue Bold';writing-mode:lr-tb;fill:#000000;fill-opacity:1;fill-rule:nonzero;stroke:none"
           transform="matrix(1,0,0,-1,189.14967,199.8)">
          <tspan
             id="tspan2167"
             y="0"
             x="0"
             style="font-style:normal;font-variant:normal;font-weight:bold;font-stretch:normal;font-family:'Helvetica Neue';-inkscape-font-specification:'Helvetica Neue Bold'">b</tspan>
        </text>
        <path
           inkscape:connector-curvature="0"
           id="path2171"
           style="fill:#ffffff;fill-opacity:1;fill-rule:nonzero;stroke:none"
           d="M 301.8463,124.42 H 350.28 v 75.38 h -48.4337 z" />
        <path
           inkscape:connector-curvature="0"
           id="path2173"
           style="fill:#000000;fill-opacity:1;fill-rule:nonzero;stroke:#000000;stroke-width:0.80000001;stroke-linecap:butt;stroke-linejoin:round;stroke-miterlimit:10;stroke-dasharray:none;stroke-opacity:1"
           d="m 301.8463,139.7234 h -3.5" />
        <text
           id="text2177"
           style="font-variant:normal;font-weight:normal;font-size:7.49700022px;font-family:'Helvetica Neue';-inkscape-font-specification:HelveticaNeue;writing-mode:lr-tb;fill:#000000;fill-opacity:1;fill-rule:nonzero;stroke:none"
           transform="matrix(1,0,0,-1,292.69005,137.05152)">
          <tspan
             id="tspan2175"
             y="0"
             x="0">4</tspan>
        </text>
        <path
           inkscape:connector-curvature="0"
           id="path2179"
           style="fill:#000000;fill-opacity:1;fill-rule:nonzero;stroke:#000000;stroke-width:0.80000001;stroke-linecap:butt;stroke-linejoin:round;stroke-miterlimit:10;stroke-dasharray:none;stroke-opacity:1"
           d="m 301.8463,165.40347 h -3.5" />
        <text
           id="text2183"
           style="font-variant:normal;font-weight:normal;font-size:7.49700022px;font-family:'Helvetica Neue';-inkscape-font-specification:HelveticaNeue;writing-mode:lr-tb;fill:#000000;fill-opacity:1;fill-rule:nonzero;stroke:none"
           transform="matrix(1,0,0,-1,292.69005,162.73159)">
          <tspan
             id="tspan2181"
             y="0"
             x="0">5</tspan>
        </text>
        <path
           inkscape:connector-curvature="0"
           id="path2185"
           style="fill:#000000;fill-opacity:1;fill-rule:nonzero;stroke:#000000;stroke-width:0.80000001;stroke-linecap:butt;stroke-linejoin:round;stroke-miterlimit:10;stroke-dasharray:none;stroke-opacity:1"
           d="m 301.8463,191.08354 h -3.5" />
        <text
           id="text2189"
           style="font-variant:normal;font-weight:normal;font-size:7.49700022px;font-family:'Helvetica Neue';-inkscape-font-specification:HelveticaNeue;writing-mode:lr-tb;fill:#000000;fill-opacity:1;fill-rule:nonzero;stroke:none"
           transform="matrix(1,0,0,-1,292.69005,188.41167)">
          <tspan
             id="tspan2187"
             y="0"
             x="0">6</tspan>
        </text>
      </g>
      <g
         id="g2191">
        <g
           clip-path="url(#clipPath2197)"
           id="g2193">
          <path
             inkscape:connector-curvature="0"
             id="path2199"
             style="fill:none;stroke:#d55e00;stroke-width:1.5;stroke-linecap:butt;stroke-linejoin:round;stroke-miterlimit:10;stroke-dasharray:1.5, 2.475;stroke-dashoffset:0;stroke-opacity:1"
             d="m 304.04784,196.37364 0.55735,-67.76971 0.55735,4.17301 0.55735,0.56496 0.55734,-4.66093 0.55735,0.91164 0.55735,2.56801 0.55735,2.42676 0.55735,-3.04309 0.55735,-2.78628 0.55735,3.40261 0.55735,-0.12841 0.55735,-2.33688 0.55735,1.38672 0.55735,-0.71904 0.55735,2.15713 0.55735,-0.70621 0.55735,1.02721 0.55735,-4.98194 0.55735,3.23569 0.55735,-3.24853 0.55735,53.61999 0.55735,-5.04613 0.55735,1.18128 0.55735,-1.93884 0.55735,2.10576 0.55735,-3.26137 0.55735,-0.87312 0.55735,5.62394 0.55735,-5.72666 0.55735,4.8407 0.55735,-4.05746 0.55735,2.13145 0.55735,1.1556 0.55735,-4.27573 0.55735,5.05898 0.55735,-7.58847 0.55735,9.69423 0.55735,-7.7939 0.55735,4.14733 0.55735,1.01436 0.55735,1.10425 0.55735,-3.51817 0.55735,2.95321 0.55735,-3.95474 0.55735,-3.27421 0.55735,3.64658 0.55735,3.38976 0.55735,-5.02045 0.55734,5.9321 0.55735,1.93884 0.55735,-7.20326 0.55735,-1.0272 0.55735,-0.87312 0.55735,3.18433 0.55735,0.93732 0.55735,0.79608 0.55735,2.56801 0.55735,-1.47661 0.55735,-4.17301 0.55735,3.47965 0.55735,14.2396 0.55735,-2.19564 0.55735,-3.10729 0.55735,0.95016 0.55735,-0.92448 0.55735,-1.25833 0.55735,2.14429 0.55735,0.87312 0.55735,-3.96757 0.55735,4.9691 0.55735,-3.73646 0.55735,3.12013 0.55735,-0.7704 0.55735,-3.58237 0.55735,3.99325 0.55735,1.27117 0.55735,-0.16692 0.55735,-5.62394 0.55735,0.56496" />
        </g>
      </g>
      <g
         id="g2201">
        <g
           clip-path="url(#clipPath2207)"
           id="g2203">
          <path
             inkscape:connector-curvature="0"
             id="path2209"
             style="fill:none;stroke:#808080;stroke-width:1;stroke-linecap:butt;stroke-linejoin:round;stroke-miterlimit:10;stroke-dasharray:3.7, 1.6;stroke-dashoffset:0;stroke-opacity:1"
             d="m 304.04784,191.08354 h 0.55735 0.55735 0.55735 0.55734 0.55735 0.55735 0.55735 0.55735 0.55735 0.55735 0.55735 0.55735 0.55735 0.55735 0.55735 0.55735 0.55735 0.55735 0.55735 0.55735 0.55735 0.55735 0.55735 0.55735 0.55735 0.55735 0.55735 0.55735 0.55735 0.55735 0.55735 0.55735 0.55735 0.55735 0.55735 0.55735 0.55735 0.55735 0.55735 0.55735 0.55735 0.55735 0.55735 0.55735 0.55735 0.55735 0.55735 0.55735 0.55734 0.55735 0.55735 0.55735 0.55735 0.55735 0.55735 0.55735 0.55735 0.55735 0.55735 0.55735 0.55735 0.55735 0.55735 0.55735 0.55735 0.55735 0.55735 0.55735 0.55735 0.55735 0.55735 0.55735 0.55735 0.55735 0.55735 0.55735 0.55735 0.55735 0.55735" />
        </g>
      </g>
      <g
         id="g2211">
        <path
           inkscape:connector-curvature="0"
           id="path2213"
           style="fill:none;stroke:#000000;stroke-width:0.80000001;stroke-linecap:square;stroke-linejoin:miter;stroke-miterlimit:10;stroke-dasharray:none;stroke-opacity:1"
           d="m 301.8463,139.7234 v 51.36014" />
        <text
           id="text2217"
           style="font-style:normal;font-variant:normal;font-weight:bold;font-stretch:normal;font-size:9px;font-family:'Helvetica Neue';-inkscape-font-specification:'Helvetica Neue Bold';writing-mode:lr-tb;fill:#000000;fill-opacity:1;fill-rule:nonzero;stroke:none"
           transform="matrix(1,0,0,-1,282.47283,199.8)">
          <tspan
             id="tspan2215"
             y="0"
             x="0"
             style="font-style:normal;font-variant:normal;font-weight:bold;font-stretch:normal;font-family:'Helvetica Neue';-inkscape-font-specification:'Helvetica Neue Bold'">c</tspan>
        </text>
        <path
           inkscape:connector-curvature="0"
           id="path2219"
           style="fill:#ffffff;fill-opacity:1;fill-rule:nonzero;stroke:none"
           d="m 213.36652,32.84 h 48.4337 v 75.38 h -48.4337 z" />
        <path
           inkscape:connector-curvature="0"
           id="path2221"
           style="fill:#000000;fill-opacity:1;fill-rule:nonzero;stroke:#000000;stroke-width:0.80000001;stroke-linecap:butt;stroke-linejoin:round;stroke-miterlimit:10;stroke-dasharray:none;stroke-opacity:1"
           d="m 213.36652,49.285456 h -3.5" />
        <text
           id="text2225"
           style="font-variant:normal;font-weight:normal;font-size:7.49700022px;font-family:'Helvetica Neue';-inkscape-font-specification:HelveticaNeue;writing-mode:lr-tb;fill:#000000;fill-opacity:1;fill-rule:nonzero;stroke:none"
           transform="matrix(1,0,0,-1,204.21027,46.613581)">
          <tspan
             id="tspan2223"
             y="0"
             x="0">5</tspan>
        </text>
        <path
           inkscape:connector-curvature="0"
           id="path2227"
           style="fill:#000000;fill-opacity:1;fill-rule:nonzero;stroke:#000000;stroke-width:0.80000001;stroke-linecap:butt;stroke-linejoin:round;stroke-miterlimit:10;stroke-dasharray:none;stroke-opacity:1"
           d="m 213.36652,71.074732 h -3.5" />
        <text
           id="text2231"
           style="font-variant:normal;font-weight:normal;font-size:7.49700022px;font-family:'Helvetica Neue';-inkscape-font-specification:HelveticaNeue;writing-mode:lr-tb;fill:#000000;fill-opacity:1;fill-rule:nonzero;stroke:none"
           transform="matrix(1,0,0,-1,204.21027,68.402857)">
          <tspan
             id="tspan2229"
             y="0"
             x="0">6</tspan>
        </text>
        <path
           inkscape:connector-curvature="0"
           id="path2233"
           style="fill:#000000;fill-opacity:1;fill-rule:nonzero;stroke:#000000;stroke-width:0.80000001;stroke-linecap:butt;stroke-linejoin:round;stroke-miterlimit:10;stroke-dasharray:none;stroke-opacity:1"
           d="m 213.36652,92.864008 h -3.5" />
        <text
           id="text2237"
           style="font-variant:normal;font-weight:normal;font-size:7.49700022px;font-family:'Helvetica Neue';-inkscape-font-specification:HelveticaNeue;writing-mode:lr-tb;fill:#000000;fill-opacity:1;fill-rule:nonzero;stroke:none"
           transform="matrix(1,0,0,-1,204.21027,90.192133)">
          <tspan
             id="tspan2235"
             y="0"
             x="0">7</tspan>
        </text>
        <text
           id="text2241"
           style="font-variant:normal;font-weight:normal;font-size:9px;font-family:'Helvetica Neue';-inkscape-font-specification:HelveticaNeue;writing-mode:lr-tb;fill:#000000;fill-opacity:1;fill-rule:nonzero;stroke:none"
           transform="matrix(0,1,1,0,199.44465,40.514375)">
          <tspan
             id="tspan2239"
             sodipodi:role="line"
             y="0"
             x="0 6.8400002 11.844 14.679 20.016001 25.02 27.855 30.357 35.855999 42.021 44.522999 46.854 53.352001 57.672001">Output ER [Hz]</tspan>
        </text>
      </g>
      <g
         id="g2243">
        <g
           clip-path="url(#clipPath2249)"
           id="g2245">
          <path
             inkscape:connector-curvature="0"
             id="path2251"
             style="fill:none;stroke:#009e73;stroke-width:1.5;stroke-linecap:butt;stroke-linejoin:round;stroke-miterlimit:10;stroke-dasharray:5.55, 2.4;stroke-dashoffset:0;stroke-opacity:1"
             d="m 215.56805,59.417469 0.55735,-23.151105 0.55735,17.213528 0.55735,1.089463 0.55735,-5.392845 0.55735,-5.447319 0.55735,9.587281 0.55735,-9.805174 0.55735,5.937578 0.55735,-0.490259 0.55735,-2.451294 0.55735,3.75865 0.55735,3.213919 0.55735,-6.31889 0.55735,-2.342348 0.55735,9.423862 0.55735,-1.252883 0.55735,-2.56024 0.55735,-9.260442 0.55735,12.038575 0.55735,-5.665212 0.55735,46.520104 0.55735,-11.221477 0.55735,13.236985 0.55735,0.490259 0.55735,8.225455 0.55735,-16.559853 0.55735,2.069981 0.55735,2.996025 0.55735,-3.704177 0.55735,5.447319 0.55735,1.852089 0.55735,-5.392846 0.55735,10.513322 0.55735,-17.376944 0.55735,7.571774 0.55734,-0.599206 0.55735,-6.15547 0.55735,3.704177 0.55735,-2.941552 0.55735,0.108946 0.55735,-4.521275 0.55735,-19.337982 0.55735,10.785691 0.55735,6.318891 0.55735,-7.190462 0.55735,-1.906561 0.55735,2.342347 0.55735,11.766209 0.55735,-14.544342 0.55735,7.244935 0.55735,-4.793641 0.55735,4.194435 0.55735,5.392846 0.55735,-19.937187 0.55735,13.345931 0.55735,-1.143937 0.55735,2.342347 0.55735,-7.35388 0.55735,7.027041 0.55735,-5.937577 0.55735,-14.925654 0.55735,-2.887079 0.55735,2.015508 0.55735,-6.64573 0.55735,10.949112 0.55735,-7.081515 0.55735,-6.100997 0.55735,5.719685 0.55735,0.653678 0.55735,-0.708152 0.55735,4.139963 0.55735,-3.050499 0.55735,-0.326839 0.55735,-7.081515 0.55735,15.524859 0.55735,-8.879129 0.55735,3.649703 0.55735,-1.961035 0.55735,2.069982" />
        </g>
      </g>
      <g
         id="g2253">
        <g
           clip-path="url(#clipPath2259)"
           id="g2255">
          <path
             inkscape:connector-curvature="0"
             id="path2261"
             style="fill:none;stroke:#808080;stroke-width:1;stroke-linecap:butt;stroke-linejoin:round;stroke-miterlimit:10;stroke-dasharray:3.7, 1.6;stroke-dashoffset:0;stroke-opacity:1"
             d="m 215.56805,71.074732 h 0.55735 0.55735 0.55735 0.55735 0.55735 0.55735 0.55735 0.55735 0.55735 0.55735 0.55735 0.55735 0.55735 0.55735 0.55735 0.55735 0.55735 0.55735 0.55735 0.55735 0.55735 0.55735 0.55735 0.55735 0.55735 0.55735 0.55735 0.55735 0.55735 0.55735 0.55735 0.55735 0.55735 0.55735 0.55735 0.55734 0.55735 0.55735 0.55735 0.55735 0.55735 0.55735 0.55735 0.55735 0.55735 0.55735 0.55735 0.55735 0.55735 0.55735 0.55735 0.55735 0.55735 0.55735 0.55735 0.55735 0.55735 0.55735 0.55735 0.55735 0.55735 0.55735 0.55735 0.55735 0.55735 0.55735 0.55735 0.55735 0.55735 0.55735 0.55735 0.55735 0.55735 0.55735 0.55735 0.55735 0.55735 0.55735 0.55735" />
        </g>
      </g>
      <g
         id="g2263">
        <path
           inkscape:connector-curvature="0"
           id="path2265"
           style="fill:none;stroke:#000000;stroke-width:0.80000001;stroke-linecap:square;stroke-linejoin:miter;stroke-miterlimit:10;stroke-dasharray:none;stroke-opacity:1"
           d="M 213.36652,49.285456 V 92.864008" />
        <text
           id="text2269"
           style="font-style:normal;font-variant:normal;font-weight:bold;font-stretch:normal;font-size:9px;font-family:'Helvetica Neue';-inkscape-font-specification:'Helvetica Neue Bold';writing-mode:lr-tb;fill:#000000;fill-opacity:1;fill-rule:nonzero;stroke:none"
           transform="matrix(1,0,0,-1,189.14967,108.22)">
          <tspan
             id="tspan2267"
             y="0"
             x="0"
             style="font-style:normal;font-variant:normal;font-weight:bold;font-stretch:normal;font-family:'Helvetica Neue';-inkscape-font-specification:'Helvetica Neue Bold'">d</tspan>
        </text>
        <path
           inkscape:connector-curvature="0"
           id="path2271"
           style="fill:#ffffff;fill-opacity:1;fill-rule:nonzero;stroke:none"
           d="M 301.8463,32.84 H 350.28 v 75.38 h -48.4337 z" />
        <path
           inkscape:connector-curvature="0"
           id="path2273"
           style="fill:#000000;fill-opacity:1;fill-rule:nonzero;stroke:#000000;stroke-width:0.80000001;stroke-linecap:butt;stroke-linejoin:round;stroke-miterlimit:10;stroke-dasharray:none;stroke-opacity:1"
           d="m 301.8463,45.414733 h -3.5" />
        <text
           id="text2277"
           style="font-variant:normal;font-weight:normal;font-size:7.49700022px;font-family:'Helvetica Neue';-inkscape-font-specification:HelveticaNeue;writing-mode:lr-tb;fill:#000000;fill-opacity:1;fill-rule:nonzero;stroke:none"
           transform="matrix(1,0,0,-1,292.69005,42.742858)">
          <tspan
             id="tspan2275"
             y="0"
             x="0">5</tspan>
        </text>
        <path
           inkscape:connector-curvature="0"
           id="path2279"
           style="fill:#000000;fill-opacity:1;fill-rule:nonzero;stroke:#000000;stroke-width:0.80000001;stroke-linecap:butt;stroke-linejoin:round;stroke-miterlimit:10;stroke-dasharray:none;stroke-opacity:1"
           d="m 301.8463,73.914327 h -3.5" />
        <text
           id="text2283"
           style="font-variant:normal;font-weight:normal;font-size:7.49700022px;font-family:'Helvetica Neue';-inkscape-font-specification:HelveticaNeue;writing-mode:lr-tb;fill:#000000;fill-opacity:1;fill-rule:nonzero;stroke:none"
           transform="matrix(1,0,0,-1,292.69005,71.242452)">
          <tspan
             id="tspan2281"
             y="0"
             x="0">6</tspan>
        </text>
        <path
           inkscape:connector-curvature="0"
           id="path2285"
           style="fill:#000000;fill-opacity:1;fill-rule:nonzero;stroke:#000000;stroke-width:0.80000001;stroke-linecap:butt;stroke-linejoin:round;stroke-miterlimit:10;stroke-dasharray:none;stroke-opacity:1"
           d="m 301.8463,102.41392 h -3.5" />
        <text
           id="text2289"
           style="font-variant:normal;font-weight:normal;font-size:7.49700022px;font-family:'Helvetica Neue';-inkscape-font-specification:HelveticaNeue;writing-mode:lr-tb;fill:#000000;fill-opacity:1;fill-rule:nonzero;stroke:none"
           transform="matrix(1,0,0,-1,292.69005,99.742045)">
          <tspan
             id="tspan2287"
             y="0"
             x="0">7</tspan>
        </text>
      </g>
      <g
         id="g2291">
        <g
           clip-path="url(#clipPath2297)"
           id="g2293">
          <path
             inkscape:connector-curvature="0"
             id="path2299"
             style="fill:none;stroke:#cc79a7;stroke-width:1.5;stroke-linecap:butt;stroke-linejoin:round;stroke-miterlimit:10;stroke-dasharray:9.6, 2.4, 1.5, 2.4;stroke-dashoffset:0;stroke-opacity:1"
             d="m 304.04784,59.279785 0.55735,-21.103949 0.55735,8.849124 0.55735,-3.861695 0.55734,-2.422465 0.55735,2.009221 0.55735,-1.980722 0.55735,2.450965 0.55735,1.396481 0.55735,-2.379717 0.55735,-2.408215 0.55735,2.536464 0.55735,-0.113999 0.55735,1.481979 0.55735,-1.481979 0.55735,-0.569992 0.55735,2.792961 0.55735,-2.465215 0.55735,-5.742668 0.55735,2.251468 0.55735,1.33948 0.55735,62.969848 0.55735,-6.982396 0.55735,0.07125 0.55735,-0.398994 0.55735,3.576699 0.55735,-5.300925 0.55735,8.307636 0.55735,-9.704116 0.55735,3.5197 0.55735,2.08047 0.55735,-1.895223 0.55735,0.470244 0.55735,1.524728 0.55735,1.39648 0.55735,-1.41073 0.55735,-4.631184 0.55735,4.93043 0.55735,-1.068735 0.55735,1.097234 0.55735,-1.125734 0.55735,7.509646 0.55735,-9.404869 0.55735,1.111485 0.55735,-1.738476 0.55735,-4.631184 0.55735,7.153398 0.55735,-0.983236 0.55735,-3.134955 0.55734,4.502936 0.55735,-0.356245 0.55735,-4.87343 0.55735,2.108969 0.55735,-5.728418 0.55735,5.044428 0.55735,6.668907 0.55735,-2.992459 0.55735,6.326909 0.55735,-6.925401 0.55735,-3.234704 0.55735,4.588435 0.55735,-45.741848 0.55735,-0.755239 0.55735,-2.051971 0.55735,-0.427494 0.55735,4.018443 0.55735,-8.065385 0.55735,5.999165 0.55735,-1.097235 0.55735,-4.616934 0.55735,5.315174 0.55735,-4.303438 0.55735,5.828167 0.55735,-0.0285 0.55735,-6.868402 0.55735,3.548199 0.55735,5.015929 0.55735,-0.199497 0.55735,-9.618613 0.55735,3.362952" />
        </g>
      </g>
      <g
         id="g2301">
        <g
           clip-path="url(#clipPath2307)"
           id="g2303">
          <path
             inkscape:connector-curvature="0"
             id="path2309"
             style="fill:none;stroke:#808080;stroke-width:1;stroke-linecap:butt;stroke-linejoin:round;stroke-miterlimit:10;stroke-dasharray:3.7, 1.6;stroke-dashoffset:0;stroke-opacity:1"
             d="m 304.04784,73.914327 h 0.55735 0.55735 0.55735 0.55734 0.55735 0.55735 0.55735 0.55735 0.55735 0.55735 0.55735 0.55735 0.55735 0.55735 0.55735 0.55735 0.55735 0.55735 0.55735 0.55735 0.55735 0.55735 0.55735 0.55735 0.55735 0.55735 0.55735 0.55735 0.55735 0.55735 0.55735 0.55735 0.55735 0.55735 0.55735 0.55735 0.55735 0.55735 0.55735 0.55735 0.55735 0.55735 0.55735 0.55735 0.55735 0.55735 0.55735 0.55735 0.55734 0.55735 0.55735 0.55735 0.55735 0.55735 0.55735 0.55735 0.55735 0.55735 0.55735 0.55735 0.55735 0.55735 0.55735 0.55735 0.55735 0.55735 0.55735 0.55735 0.55735 0.55735 0.55735 0.55735 0.55735 0.55735 0.55735 0.55735 0.55735 0.55735 0.55735" />
        </g>
      </g>
      <g
         id="g2311">
        <path
           inkscape:connector-curvature="0"
           id="path2313"
           style="fill:none;stroke:#000000;stroke-width:0.80000001;stroke-linecap:square;stroke-linejoin:miter;stroke-miterlimit:10;stroke-dasharray:none;stroke-opacity:1"
           d="M 301.8463,45.414733 V 102.41392" />
        <text
           id="text2317"
           style="font-style:normal;font-variant:normal;font-weight:bold;font-stretch:normal;font-size:9px;font-family:'Helvetica Neue';-inkscape-font-specification:'Helvetica Neue Bold';writing-mode:lr-tb;fill:#000000;fill-opacity:1;fill-rule:nonzero;stroke:none"
           transform="matrix(1,0,0,-1,282.47283,108.22)">
          <tspan
             id="tspan2315"
             y="0"
             x="0"
             style="font-style:normal;font-variant:normal;font-weight:bold;font-stretch:normal;font-family:'Helvetica Neue';-inkscape-font-specification:'Helvetica Neue Bold'">e</tspan>
        </text>
      </g>
    </g>
  </g>
</svg>
